ffprobe version n2.6.1 Copyright (c) 2007-2015 the FFmpeg developers
  built with gcc 4.8 (Ubuntu 4.8.2-19ubuntu1)
  configuration: --prefix=/opt/ffmpeg --extra-cflags=-I/opt/ffmpeg/include --extra-ldflags=-L/opt/ffmpeg/lib --extra-libs=-ldl --enable-gpl --enable-libass --enable-libfdk-aac --enable-libfreetype --enable-libmp3lame --enable-libtheora --enable-libvorbis --enable-libvpx --enable-libx264 --enable-libx265 --enable-nonfree
  libavutil      54. 20.100 / 54. 20.100
  libavcodec     56. 26.100 / 56. 26.100
  libavformat    56. 25.101 / 56. 25.101
  libavdevice    56.  4.100 / 56.  4.100
  libavfilter     5. 11.102 /  5. 11.102
  libswscale      3.  1.101 /  3.  1.101
  libswresample   1.  1.100 /  1.  1.100
  libpostproc    53.  3.100 / 53.  3.100
Input #0, avi, from 'Sintel_Documentary_by_Ali_Boubred.avi':
  Metadata:
    encoder         : MEncoder UNKNOWN-4.4.1
  Duration: 00:58:26.08, start: 0.000000, bitrate: 2193 kb/s
    Stream #0:0: Video: h264 (Main) (h264 / 0x34363268), yuv420p, 1280x720 [SAR 1:1 DAR 16:9], 1803 kb/s, 25 fps, 25 tbr, 25 tbn, 50 tbc
    Stream #0:1: Audio: mp2 (P[0][0][0] / 0x0050), 48000 Hz, stereo, s16p, 384 kb/s
